Coordinates
version=1
nRows=11
nColumns=40
inDegrees=yes

Units are S.I. units (second, meters, Newtons, ...)
Angles are in degrees.

endheader
time	pelvis_tilt	pelvis_list	pelvis_rotation	pelvis_tx	pelvis_ty	pelvis_tz	hip_flexion_r	hip_adduction_r	hip_rotation_r	knee_angle_r	knee_angle_r_beta	ankle_angle_r	subtalar_angle_r	mtp_angle_r	hip_flexion_l	hip_adduction_l	hip_rotation_l	knee_angle_l	knee_angle_l_beta	ankle_angle_l	subtalar_angle_l	mtp_angle_l	lumbar_extension	lumbar_bending	lumbar_rotation	arm_flex_r	arm_add_r	arm_rot_r	elbow_flex_r	pro_sup_r	wrist_flex_r	wrist_dev_r	arm_flex_l	arm_add_l	arm_rot_l	elbow_flex_l	pro_sup_l	wrist_flex_l	wrist_dev_l
     50.09028571	     -6.35659098	     -4.32936741	     15.28080205	      1.16349713	      0.92489329	      0.53686441	     10.43069154	      3.37842623	    -20.70400879	     16.10149537	     16.10149537	     14.26195153	     -9.27481457	     -3.55340219	     33.01586906	     -7.13014041	      1.93682385	     18.70991252	     18.70991252	     -5.19319618	     -5.93472253	      6.90488214	     -8.89486223	      3.47872921	      4.03556096	     66.43040762	    -21.15875213	     -3.47914362	     81.05745068	     44.61756103	      0.00000000	      0.00000000	    -17.84858888	    -10.22541015	     20.81250287	     34.01295036	     43.43765553	      0.00000000	      0.00000000
     50.11057143	     -6.39951695	     -4.54051502	     15.31423484	      1.16301296	      0.92443035	      0.53417742	      9.94584796	      3.52317887	    -21.00900153	     15.52495582	     15.52495582	     13.96232536	     -8.81049700	     -5.00859550	     32.72687934	     -7.16812260	      1.79433624	     18.29355686	     18.29355686	     -6.30683607	     -5.53128672	      3.67565890	     -8.82764375	      3.61639518	      4.16339558	     67.50291321	    -20.95512797	     -2.55752475	     81.92343688	     44.61656838	      0.00000000	      0.00000000	    -17.69692470	    -10.21509547	     21.85512528	     34.23731500	     43.43567743	      0.00000000	      0.00000000
     50.13085714	     -6.43898212	     -4.75036268	     15.31127325	      1.16279499	      0.92389571	      0.53138804	      9.53842965	      3.68728009	    -21.01342738	     15.15116779	     15.15116779	     14.10279395	     -8.60403233	     -5.13812835	     32.46506115	     -7.14524248	      2.05218153	     18.25416873	     18.25416873	     -6.04776028	     -5.51173155	      3.24855302	     -8.75603915	      3.72204247	      4.21878751	     68.33706609	    -20.34610913	     -2.33778696	     82.55083754	     44.60348822	      0.00000000	      0.00000000	    -17.49267295	    -10.05004898	     22.08141078	     34.22058675	     43.43899596	      0.00000000	      0.00000000
     50.15114286	     -6.50024835	     -4.96939493	     15.19313623	      1.16295419	      0.92316559	      0.52845307	      9.22422902	      3.81354272	    -20.96455446	     14.97573681	     14.97573681	     14.30764198	     -8.39545645	     -5.27864343	     32.15738137	     -7.17880310	      2.20529997	     18.30812690	     18.30812690	     -5.44608544	     -5.63017308	      2.83367610	     -8.58429476	      3.82015123	      4.39954491	     69.00298160	    -19.86860422	     -2.11579584	     82.97776582	     44.59052324	      0.00000000	      0.00000000	    -17.19332814	     -9.98594121	     22.17647246	     34.23434066	     43.44533093	      0.00000000	      0.00000000
     50.17142857	     -6.65224852	     -5.14905496	     15.10314831	      1.16348631	      0.92224388	      0.52520489	      9.00826235	      3.84610734	    -20.87110536	     14.89728138	     14.89728138	     14.58351879	     -8.33897381	     -5.37921534	     31.82219886	     -7.12627027	      2.37588227	     18.28579764	     18.28579764	     -4.55440275	     -5.79076848	      2.48053260	     -8.26596546	      3.75323598	      4.52101999	     69.20667105	    -19.62317896	     -2.00105419	     83.13143353	     44.58367171	      0.00000000	      0.00000000	    -17.00757391	    -10.01948576	     22.18086717	     34.25607744	     43.45004957	      0.00000000	      0.00000000
     50.19171429	     -6.41829168	     -5.38957391	     14.93017576	      1.16456711	      0.92177181	      0.52194807	      8.20970776	      4.11073286	    -20.82413050	     14.49959896	     14.49959896	     14.79344875	     -7.87519896	     -5.51600200	     31.24949089	     -7.28906330	      2.54766758	     18.63211757	     18.63211757	     -3.51363941	     -6.20516726	      1.93688599	     -8.41075414	      3.94718152	      4.52608748	     69.77711334	    -18.83055610	     -1.48971017	     83.77963566	     44.55458619	      0.00000000	      0.00000000	    -16.64142326	    -10.03574602	     22.30356692	     34.15328868	     43.45562269	      0.00000000	      0.00000000
     50.21200000	     -6.38262502	     -5.54599579	     14.74221082	      1.16586609	      0.92116379	      0.51835994	      7.61632994	      4.19874927	    -20.71991461	     14.17892473	     14.17892473	     15.00854524	     -7.54889167	     -5.61964146	     30.75487418	     -7.31004986	      2.63334841	     18.81773516	     18.81773516	     -2.38605986	     -6.59257403	      1.48089952	     -8.26690082	      3.95963462	      4.54693737	     69.87899736	    -18.32018666	     -1.07309997	     84.09612172	     44.53636551	      0.00000000	      0.00000000	    -16.30695703	    -10.22167375	     22.34640831	     34.06969777	     43.46678319	      0.00000000	      0.00000000
     50.23228571	     -6.30161533	     -5.71060520	     14.59095305	      1.16742987	      0.92073364	      0.51445546	      6.82976924	      4.32900585	    -20.72259750	     13.60273412	     13.60273412	     15.12230714	     -7.05012348	     -5.68779272	     30.26221318	     -7.32738263	      2.77917870	     19.08648555	     19.08648555	     -1.18190898	     -6.99156846	      1.09553037	     -8.22543168	      3.98527642	      4.41478763	     70.06373192	    -17.91022853	     -0.46533671	     84.49700335	     44.51591895	      0.00000000	      0.00000000	    -15.98952708	    -10.36853795	     22.46289686	     33.87540348	     43.48271737	      0.00000000	      0.00000000
     50.25257143	     -6.41338273	     -5.73203366	     14.39230983	      1.16901207	      0.92015104	      0.51033684	      6.42092897	      4.17409261	    -20.48227841	     13.47952688	     13.47952688	     15.34670527	     -6.92332922	     -5.74531168	     29.89775872	     -7.16532948	      2.80536210	     19.26148496	     19.26148496	     -0.14129174	     -7.35982267	      0.73209405	     -7.87856956	      3.81782932	      4.51717437	     70.02411688	    -17.61715954	     -0.26644750	     84.56181841	     44.50898264	      0.00000000	      0.00000000	    -15.57730000	    -10.67547372	     22.40354300	     33.89696379	     43.49896591	      0.00000000	      0.00000000
     50.27285714	     -6.26740935	     -5.73442812	     14.16223957	      1.17085421	      0.92010906	      0.50587883	      5.45798041	      4.13033111	    -20.37616109	     12.81590766	     12.81590766	     15.39977209	     -6.43080783	     -5.66166381	     29.48964833	     -7.04243086	      2.83402508	     19.89385100	     19.89385100	      0.99294791	     -8.02679550	      0.59588721	     -7.96584488	      3.76688570	      4.51291038	     70.04640755	    -17.32883143	      0.29938591	     84.72932744	     44.49655413	      0.00000000	      0.00000000	    -15.03899527	    -10.99429331	     22.41864508	     33.75457857	     43.52873631	      0.00000000	      0.00000000
     50.29314286	     -6.27341584	     -5.65740096	     13.91341575	      1.17261636	      0.92002493	      0.50117820	      4.74686037	      3.90065925	    -20.22199291	     12.37437772	     12.37437772	     15.45430621	     -6.05275743	     -5.56597705	     29.19310418	     -6.79127261	      2.81058775	     20.44179174	     20.44179174	      2.00509846	     -8.60650626	      0.58321404	     -7.85287119	      3.60985229	      4.57769016	     69.95944444	    -17.17852844	      0.74405340	     84.71638046	     44.49442715	      0.00000000	      0.00000000	    -14.44356371	    -11.34500298	     22.39148203	     33.63892905	     43.56612819	      0.00000000	      0.00000000
